HIERARCHY
ROOT hip
{
  OFFSET 50.6366 84.7034 117.895
  CHANNELS 6 Xposition Yposition Zposition Zrotation Xrotation Yrotation
  JOINT abdomen
  {
    OFFSET 0 20.6881 -0.73152
    CHANNELS 3 Zrotation Xrotation Yrotation
    JOINT chest
    {
      OFFSET 0 11.7043 -0.48768
      CHANNELS 3 Zrotation Xrotation Yrotation
      JOINT neck
      {
        OFFSET 0 22.1894 -2.19456
        CHANNELS 3 Zrotation Xrotation Yrotation
        JOINT head
        {
          OFFSET -0.24384 7.07133 1.2192
          CHANNELS 3 Zrotation Xrotation Yrotation
          JOINT leftEye
          {
            OFFSET 4.14528 8.04674 8.04672
            CHANNELS 3 Zrotation Xrotation Yrotation
            End Site
            {
              OFFSET 1 0 0
            }
          }
          JOINT rightEye
          {
            OFFSET -3.6576 8.04674 8.04672
            CHANNELS 3 Zrotation Xrotation Yrotation
            End Site
            {
              OFFSET 1 0 0
            }
          }
        }
      }
      JOINT rCollar
      {
        OFFSET -2.68224 19.2634 -4.8768
        CHANNELS 3 Zrotation Xrotation Yrotation
        JOINT rShldr
        {
          OFFSET -8.77824 -1.95073 1.46304
          CHANNELS 3 Zrotation Xrotation Yrotation
          JOINT rForeArm
          {
            OFFSET -28.1742 -1.7115 0.48768
            CHANNELS 3 Zrotation Xrotation Yrotation
            JOINT rHand
            {
              OFFSET -22.5879 0.773209 7.07136
              CHANNELS 3 Zrotation Xrotation Yrotation
              JOINT rThumb1
              {
                OFFSET -1.2192 -0.487915 3.41376
                CHANNELS 3 Zrotation Xrotation Yrotation
                JOINT rThumb2
                {
                  OFFSET -3.37035 -0.52449 3.41376
                  CHANNELS 3 Zrotation Xrotation Yrotation
                  End Site
                  {
                    OFFSET -1.78271 -1.18214 1.43049
                  }
                }
              }
              JOINT rIndex1
              {
                OFFSET -7.75947 0.938293 5.60832
                CHANNELS 3 Zrotation Xrotation Yrotation
                JOINT rIndex2
                {
                  OFFSET -2.54057 -0.884171 1.56538
                  CHANNELS 3 Zrotation Xrotation Yrotation
                  End Site
                  {
                    OFFSET -1.62519 -0.234802 1.16502
                  }
                }
              }
              JOINT rMid1
              {
                OFFSET -8.24714 1.18213 3.41376
                CHANNELS 3 Zrotation Xrotation Yrotation
                JOINT rMid2
                {
                  OFFSET -3.10165 -0.590103 1.0647
                  CHANNELS 3 Zrotation Xrotation Yrotation
                  End Site
                  {
                    OFFSET -2.48547 -0.328903 0.83742
                  }
                }
              }
              JOINT rRing1
              {
                OFFSET -8.82822 0.546677 1.51678
                CHANNELS 3 Zrotation Xrotation Yrotation
                JOINT rRing2
                {
                  OFFSET -2.60934 -0.819778 -0.0198488
                  CHANNELS 3 Zrotation Xrotation Yrotation
                  End Site
                  {
                    OFFSET -2.33842 -0.294052 0.168128
                  }
                }
              }
              JOINT rPinky1
              {
                OFFSET -8.27202 -0.0477905 -0.4584
                CHANNELS 3 Zrotation Xrotation Yrotation
                JOINT rPinky2
                {
                  OFFSET -1.82734 -0.647385 -0.700984
                  CHANNELS 3 Zrotation Xrotation Yrotation
                  End Site
                  {
                    OFFSET -1.69225 -0.51767 -0.607171
                  }
                }
              }
            }
          }
        }
      }
      JOINT lCollar
      {
        OFFSET 2.68224 19.2634 -4.8768
        CHANNELS 3 Zrotation Xrotation Yrotation
        JOINT lShldr
        {
          OFFSET 8.77824 -1.95073 1.46304
          CHANNELS 3 Zrotation Xrotation Yrotation
          JOINT lForeArm
          {
            OFFSET 28.1742 -1.7115 0.48768
            CHANNELS 3 Zrotation Xrotation Yrotation
            JOINT lHand
            {
              OFFSET 22.5879 0.773209 7.07136
              CHANNELS 3 Zrotation Xrotation Yrotation
              JOINT lThumb1
              {
                OFFSET 1.2192 -0.487915 3.41376
                CHANNELS 3 Zrotation Xrotation Yrotation
                JOINT lThumb2
                {
                  OFFSET 3.37035 -0.52449 3.41376
                  CHANNELS 3 Zrotation Xrotation Yrotation
                  End Site
                  {
                    OFFSET 1.78271 -1.18214 1.43049
                  }
                }
              }
              JOINT lIndex1
              {
                OFFSET 7.75947 0.938293 5.60832
                CHANNELS 3 Zrotation Xrotation Yrotation
                JOINT lIndex2
                {
                  OFFSET 2.54057 -0.884171 1.56538
                  CHANNELS 3 Zrotation Xrotation Yrotation
                  End Site
                  {
                    OFFSET 1.62519 -0.234802 1.16502
                  }
                }
              }
              JOINT lMid1
              {
                OFFSET 8.24714 1.18213 3.41376
                CHANNELS 3 Zrotation Xrotation Yrotation
                JOINT lMid2
                {
                  OFFSET 3.10165 -0.590103 1.0647
                  CHANNELS 3 Zrotation Xrotation Yrotation
                  End Site
                  {
                    OFFSET 2.48547 -0.328903 0.83742
                  }
                }
              }
              JOINT lRing1
              {
                OFFSET 8.82822 0.546677 1.51678
                CHANNELS 3 Zrotation Xrotation Yrotation
                JOINT lRing2
                {
                  OFFSET 2.60934 -0.819778 -0.0198488
                  CHANNELS 3 Zrotation Xrotation Yrotation
                  End Site
                  {
                    OFFSET 2.33842 -0.294052 0.168128
                  }
                }
              }
              JOINT lPinky1
              {
                OFFSET 8.27202 -0.0477905 -0.4584
                CHANNELS 3 Zrotation Xrotation Yrotation
                JOINT lPinky2
                {
                  OFFSET 1.82734 -0.647385 -0.700984
                  CHANNELS 3 Zrotation Xrotation Yrotation
                  End Site
                  {
                    OFFSET 1.69225 -0.51767 -0.607171
                  }
                }
              }
            }
          }
        }
      }
    }
  }
  JOINT rButtock
  {
    OFFSET -8.77824 4.35084 1.2192
    CHANNELS 3 Zrotation Xrotation Yrotation
    JOINT rThigh
    {
      OFFSET 0 -1.70687 -2.19456
      CHANNELS 3 Zrotation Xrotation Yrotation
      JOINT rShin
      {
        OFFSET 0 -36.8199 0.73152
        CHANNELS 3 Zrotation Xrotation Yrotation
        JOINT rFoot
        {
          OFFSET 0.73152 -45.1104 -5.12064
          CHANNELS 3 Zrotation Xrotation Yrotation
          End Site
          {
            OFFSET -1.1221 -3.69964 12.103
          }
        }
      }
    }
  }
  JOINT lButtock
  {
    OFFSET 8.77824 4.35084 1.2192
    CHANNELS 3 Zrotation Xrotation Yrotation
    JOINT lThigh
    {
      OFFSET 0 -1.70687 -2.19456
      CHANNELS 3 Zrotation Xrotation Yrotation
      JOINT lShin
      {
        OFFSET 0 -36.8199 0.73152
        CHANNELS 3 Zrotation Xrotation Yrotation
        JOINT lFoot
        {
          OFFSET -0.73152 -45.1104 -5.12064
          CHANNELS 3 Zrotation Xrotation Yrotation
          End Site
          {
            OFFSET 1.1221 -3.69964 12.103
          }
        }
      }
    }
  }
}
MOTION
Frames:	6
Frame Time:	0.00833333
53.9761 64.915 138.363 -3.22593 -29.6534 -179.698 2.42588 24.9237 2.96853 -0.0966016 -18.055 0.692639 -4.97025 9.32249 -4.37875 9.66153 -61.775 -3.87584 -0 0 0 -0 0 0 -4.65566e-014 5.72518e-014 6.06231e-014 56.5526 -5.1417 -24.7091 -11.5976 -5.17952 20.8188 -2.98036 43.0336 7.54186 7.13628e-010 -4.1686e-010 -6.50179e-010 1.20879e-009 -7.12054e-010 -1.14856e-009 7.1363e-010 -4.16863e-010 -6.50203e-010 7.73091 5.47488 0.417314 7.13626e-010 -4.16859e-010 -6.50185e-010 2.90554 0.965183 0.102902 7.13638e-010 -4.16856e-010 -6.50181e-010 10.2786 0.731801 0.0259123 7.13629e-010 -4.16854e-010 -6.50178e-010 2.22167 -0.733487 -0.20892 -4.67199e-014 5.72469e-014 6.03964e-014 -66.6961 -15.1866 23.2698 13.6431 -6.6689 -24.8414 0.378084 17.2587 -2.50183 1.00048e-009 -1.406e-009 2.49521e-009 1.76176e-009 -2.45135e-009 4.2978e-009 1.00047e-009 -1.406e-009 2.49522e-009 -7.73091 5.47488 -0.417314 1.00048e-009 -1.406e-009 2.49521e-009 -2.90554 0.965183 -0.102902 1.00048e-009 -1.406e-009 2.4952e-009 -10.2786 0.731801 -0.0259123 1.00049e-009 -1.406e-009 2.49519e-009 -2.22167 -0.733487 0.20892 -2.03217e-016 0 -3.88251e-019 -0.167387 -80.5655 -12.7345 -5.51396 81.7036 6.97249 -13.6635 -23.6415 -22.6594 2.03217e-016 0 3.88251e-019 15.2096 -81.7292 16.5538 5.56385 81.0411 -6.32265 5.55044 -27.9417 8.93551 
54.0577 64.7004 138.217 -3.49869 -29.1464 179.571 2.46576 25.2416 3.24376 -0.176891 -18.1515 0.717085 -5.36615 9.40476 -3.44655 7.39391 -62.0873 -7.08654 -0 0 0 -0 0 0 -8.28213e-014 6.7539e-014 2.77646e-014 59.6934 -4.26195 -20.2445 -11.1704 -4.88935 20.0062 -3.25778 44.4823 7.93942 1.23276e-009 -2.796e-010 -7.74966e-010 2.09633e-009 -4.92089e-010 -1.38084e-009 1.23276e-009 -2.796e-010 -7.74981e-010 7.73091 5.47488 0.417314 1.23275e-009 -2.79598e-010 -7.74975e-010 2.90554 0.965183 0.102902 1.23277e-009 -2.79596e-010 -7.7497e-010 10.2786 0.731801 0.0259123 1.23276e-009 -2.79595e-010 -7.7497e-010 2.22167 -0.733487 -0.20892 -8.29418e-014 6.75341e-014 2.74909e-014 -70.4793 -13.1952 19.2668 13.4946 -6.55375 -24.543 0.426554 18.2682 -2.65869 7.77312e-010 -1.43081e-009 2.55715e-009 1.37907e-009 -2.49873e-009 4.40615e-009 7.77305e-010 -1.43081e-009 2.55717e-009 -7.73091 5.47488 -0.417314 7.77315e-010 -1.43081e-009 2.55716e-009 -2.90554 0.965183 -0.102902 7.77311e-010 -1.43081e-009 2.55715e-009 -10.2786 0.731801 -0.0259123 7.77319e-010 -1.4308e-009 2.55714e-009 -2.22167 -0.733487 0.20892 -2.03217e-016 0 -3.88251e-019 -0.826036 -80.2236 -13.7064 -5.91328 82.2164 7.41186 -14.231 -23.4542 -23.5957 2.03217e-016 0 3.88251e-019 12.7507 -81.5442 13.9456 5.84281 81.4027 -6.60002 5.43832 -27.9024 8.76196 
54.145 64.5326 138.108 -3.7208 -28.6491 178.931 2.43229 25.405 3.51655 -0.237325 -18.1067 0.753572 -5.63921 9.41978 -2.8455 5.81664 -62.2315 -9.37953 -0 0 0 -0 0 0 -9.75676e-014 7.63353e-014 4.91992e-015 62.8152 -2.34788 -15.3883 -10.9339 -4.72862 19.565 -3.28427 44.6642 7.98437 1.68454e-009 -2.03406e-010 -1.01152e-009 2.86754e-009 -3.68734e-010 -1.80247e-009 1.68455e-009 -2.03404e-010 -1.01153e-009 7.73091 5.47488 0.417314 1.68454e-009 -2.03404e-010 -1.01153e-009 2.90554 0.965183 0.102902 1.68455e-009 -2.03403e-010 -1.01152e-009 10.2786 0.731801 0.0259123 1.68455e-009 -2.03402e-010 -1.01152e-009 2.22167 -0.733487 -0.20892 -9.76453e-014 7.63306e-014 4.62174e-015 -73.7453 -10.7296 15.3691 13.4067 -6.48559 -24.368 0.449987 18.7191 -2.72961 5.8359e-010 -1.22669e-009 2.73009e-009 1.04757e-009 -2.14783e-009 4.7069e-009 5.83583e-010 -1.22669e-009 2.73011e-009 -7.73091 5.47488 -0.417314 5.83593e-010 -1.22669e-009 2.73009e-009 -2.90554 0.965183 -0.102902 5.8359e-010 -1.22669e-009 2.73009e-009 -10.2786 0.731801 -0.0259123 5.83597e-010 -1.22669e-009 2.73008e-009 -2.22167 -0.733487 0.20892 -2.03217e-016 0 -3.88251e-019 -0.992031 -79.7882 -14.0728 -6.21431 82.5615 7.7431 -14.659 -23.2872 -24.3207 2.03217e-016 0 3.88251e-019 10.611 -81.2221 11.6631 6.02364 81.6178 -6.77497 5.26413 -27.8638 8.48886 
54.2652 64.5438 137.988 -3.86945 -28.1881 178.431 2.26839 25.3342 3.79837 -0.266871 -17.8245 0.809132 -5.73776 9.34454 -2.72122 5.3673 -62.2693 -10.2969 -0 0 0 -0 0 0 -7.42773e-014 8.43114e-014 -5.47823e-015 65.655 1.0905 -10.0593 -10.9524 -4.73733 19.6059 -2.92695 42.922 7.49058 2.13765e-009 -2.12289e-010 -1.53603e-009 3.63797e-009 -3.78152e-010 -2.71845e-009 2.13765e-009 -2.12285e-010 -1.53604e-009 7.73091 5.47488 0.417314 2.13765e-009 -2.12285e-010 -1.53604e-009 2.90554 0.965183 0.102902 2.13766e-009 -2.12285e-010 -1.53603e-009 10.2786 0.731801 0.0259123 2.13765e-009 -2.12285e-010 -1.53603e-009 2.22167 -0.733487 -0.20892 -7.43075e-014 8.43072e-014 -5.76553e-015 -76.4454 -7.80459 11.5085 13.3032 -6.39447 -24.1868 0.439998 18.4853 -2.69337 3.9651e-010 -6.0612e-010 3.1829e-009 7.29506e-010 -1.07337e-009 5.49267e-009 3.96504e-010 -6.06121e-010 3.18292e-009 -7.73091 5.47488 -0.417314 3.96512e-010 -6.06119e-010 3.1829e-009 -2.90554 0.965183 -0.102902 3.96509e-010 -6.06119e-010 3.1829e-009 -10.2786 0.731801 -0.0259123 3.96517e-010 -6.06118e-010 3.18289e-009 -2.22167 -0.733487 0.20892 -2.03217e-016 0 -3.88251e-019 -0.519428 -79.2556 -13.6313 -6.34415 82.7046 7.89164 -14.924 -23.2161 -24.7603 2.03217e-016 0 3.88251e-019 8.87236 -80.7526 9.79626 6.07393 81.667 -6.81469 5.03 -27.8458 8.11674 
54.3786 64.6556 137.786 -3.9702 -27.7234 178.018 2.02061 25.1001 4.08866 -0.283564 -17.3628 0.875572 -5.72093 9.18466 -2.86413 5.60551 -62.2205 -10.3636 -0 0 0 -0 0 0 -2.6752e-014 9.08464e-014 -9.82742e-015 67.711 5.74591 -4.28183 -11.1454 -4.86286 19.9755 -2.3891 39.7863 6.69122 2.61459e-009 -2.7352e-010 -2.27112e-009 4.44678e-009 -4.6951e-010 -3.99674e-009 2.61459e-009 -2.73515e-010 -2.27113e-009 7.73091 5.47488 0.417314 2.61459e-009 -2.73515e-010 -2.27113e-009 2.90554 0.965183 0.102902 2.6146e-009 -2.73515e-010 -2.27113e-009 10.2786 0.731801 0.0259123 2.61459e-009 -2.73516e-010 -2.27112e-009 2.22167 -0.733487 -0.20892 -2.67291e-014 9.08429e-014 -1.00821e-014 -78.5473 -4.51265 7.65659 13.2044 -6.30093 -24.0297 0.406303 17.7486 -2.579 1.82567e-010 3.17069e-010 3.79698e-009 3.66122e-010 5.26686e-010 6.55841e-009 1.82562e-010 3.17067e-010 3.797e-009 -7.73091 5.47488 -0.417314 1.82568e-010 3.17068e-010 3.79698e-009 -2.90554 0.965183 -0.102902 1.82566e-010 3.17067e-010 3.79698e-009 -10.2786 0.731801 -0.0259123 1.82574e-010 3.17068e-010 3.79697e-009 -2.22167 -0.733487 0.20892 -2.03217e-016 0 -3.88251e-019 0.370814 -78.6031 -12.6523 -6.30813 82.6785 7.86708 -15.0929 -23.2065 -25.0309 2.03217e-016 0 3.88251e-019 7.40017 -80.1316 8.19672 6.00533 81.5716 -6.732 4.75073 -27.8346 7.672 
54.4399 64.8042 137.52 -4.06589 -27.2297 177.613 1.79167 24.829 4.35797 -0.300334 -16.8945 0.942778 -5.65723 8.99171 -3.1044 6.00678 -62.0652 -10.1074 -0 0 0 -0 0 0 1.81934e-014 9.48962e-014 -8.80321e-015 68.6727 10.7645 1.81532 -11.4404 -5.06046 20.5382 -1.91921 36.3287 5.91344 2.94399e-009 -3.57623e-010 -2.8784e-009 5.00466e-009 -5.99569e-010 -5.05015e-009 2.94399e-009 -3.57616e-010 -2.8784e-009 7.73091 5.47488 0.417314 2.94399e-009 -3.57617e-010 -2.8784e-009 2.90554 0.965183 0.102902 2.944e-009 -3.57616e-010 -2.8784e-009 10.2786 0.731801 0.0259123 2.94399e-009 -3.57617e-010 -2.87839e-009 2.22167 -0.733487 -0.20892 1.82638e-014 9.48939e-014 -9.02218e-015 -79.9398 -0.849836 3.98319 13.2702 -6.349 -24.1652 0.356747 16.6567 -2.41072 1.8204e-011 1.20631e-009 4.2813e-009 8.64758e-011 2.06896e-009 7.39952e-009 1.82006e-011 1.20631e-009 4.28132e-009 -7.73091 5.47488 -0.417314 1.82047e-011 1.2063e-009 4.2813e-009 -2.90554 0.965183 -0.102902 1.82017e-011 1.2063e-009 4.2813e-009 -10.2786 0.731801 -0.0259123 1.82115e-011 1.2063e-009 4.28129e-009 -2.22167 -0.733487 0.20892 -2.03217e-016 0 -3.88251e-019 1.22771 -77.857 -11.6747 -6.16243 82.5369 7.72607 -15.1737 -23.123 -25.2159 2.03217e-016 0 3.88251e-019 6.27661 -79.403 6.9385 5.84573 81.3592 -6.55486 4.41163 -27.7929 7.13401 
